#!OML:ASF F:\VICON\USERDATA\Patient Classification 1\PLAYGROUND\JustinFriday\JustinFriday.ASF
:FULLY-SPECIFIED
:DEGREES
3090
root 13.3685 27.0321 48.1279 -714.626 -175.078 6.90145
lowerback 24.5605 0.490692 5.05689
upperback 4.46875 1.19791 3.38282
thorax -8.66253 0.0216233 0.53377
lowerneck 5.28462 -2.36817 -3.04497
upperneck -12.7332 -3.25704 4.72174
head -4.54547 -1.88834 2.14095
rclavicle -7.35503e-015 -5.64548e-014
rhumerus 92.1571 -6.289 -74.1372
rradius 78.5717
rwrist 17.7471
rhand -11.0051 -17.0659
rfingers 7.12502
rthumb 15.0156 -406.501
lclavicle -7.35503e-015 -5.64548e-014
lhumerus 94.4283 1.56613 75.6904
lradius 74.2703
lwrist -24.2794
lhand 6.86782 -1.83622
lfingers 7.12502
lthumb 32.1499 25.3396
rfemur -23.3549 3.15784 26.3601
rtibia 28.2815
rfoot -31.1818 -8.71411
rtoes 9.74775
lfemur -22.888 1.86098 -11.558
ltibia 27.9387
lfoot -29.5744 -3.14832
ltoes -1.48535
3091
root 13.3568 27.049 48.036 -714.261 -174.548 6.82987
lowerback 24.4253 0.291099 5.19571
upperback 4.39708 0.988023 3.43007
thorax -8.67543 -0.0746167 0.571631
lowerneck 5.65982 -2.42427 -3.01287
upperneck -12.9141 -3.34359 4.59712
head -4.66385 -1.92623 2.11171
rclavicle -1.64991e-014 -1.19271e-015
rhumerus 92.2242 -6.37726 -74.158
rradius 79.8379
rwrist 17.9527
rhand -10.823 -16.9547
rfingers 7.12502
rthumb 15.191 -406.377
lclavicle -1.64991e-014 -1.19271e-015
lhumerus 94.4617 1.60928 75.9288
lradius 75.5519
lwrist -24.4978
lhand 7.0439 -1.69648
lfingers 7.12502
lthumb 32.3175 25.4453
rfemur -23.45 2.89125 26.2803
rtibia 28.3664
rfoot -31.3146 -8.93062
rtoes 9.53343
lfemur -23.0328 1.56963 -11.6449
ltibia 27.8581
lfoot -29.5303 -3.22502
ltoes -1.70897
3092
root 13.3651 27.0666 47.9042 -714.736 -176.575 6.19245
lowerback 25.0342 1.26218 3.60932
upperback 4.66956 1.80705 3.28814
thorax -8.72206 0.333316 1.0644
lowerneck 6.33793 -2.50328 -2.92588
upperneck -13.3433 -3.46588 4.4359
head -4.91071 -1.986 2.075
rclavicle -7.7526e-015 7.95139e-015
rhumerus 92.2793 -6.4942 -74.2417
rradius 80.9407
rwrist 18.1942
rhand -10.4563 -16.6316
rfingers 7.12502
rthumb 15.5442 -406.027
lclavicle -7.7526e-015 7.95139e-015
lhumerus 94.3612 1.63426 76.0885
lradius 76.8215
lwrist -24.8587
lhand 6.97729 -1.5576
lfingers 7.12502
lthumb 32.2541 25.5971
rfemur -22.4562 3.35837 25.6466
rtibia 28.454
rfoot -31.492 -7.5038
rtoes 9.8356
lfemur -21.3614 1.94072 -12.3244
ltibia 27.8743
lfoot -30.2145 -1.74193
ltoes -1.72317
3093
root 13.3583 27.0865 47.7856 -714.855 -177.148 5.71275
lowerback 25.1805 1.53609 3.03819
upperback 4.79367 1.98598 3.09848
thorax -8.67479 0.426847 1.12318
lowerneck 7.03432 -2.53093 -2.86334
upperneck -13.7927 -3.49223 4.50859
head -5.16643 -2.01328 2.11109
rclavicle 2.84262e-014 2.66371e-014
rhumerus 92.3246 -6.78523 -74.3256
rradius 82.0112
rwrist 18.331
rhand -10.2076 -16.5744
rfingers 7.12502
rthumb 15.7838 -405.951
lclavicle 2.84262e-014 2.66371e-014
lhumerus 94.2446 1.62816 76.0728
lradius 78.1313
lwrist -25.2431
lhand 6.86811 -1.54895
lfingers 7.12502
lthumb 32.1501 25.6268
rfemur -21.9552 3.29817 25.1067
rtibia 28.6599
rfoot -31.9271 -6.65619
rtoes 10.5909
lfemur -20.4827 1.64386 -12.8723
ltibia 27.7379
lfoot -30.6751 -0.90735
ltoes -2.3006
3094
root 13.3592 27.0983 47.7555 -713.819 -175.545 6.42109
lowerback 24.9563 0.817862 4.31226
upperback 4.44732 1.45953 3.27668
thorax -8.90858 0.163933 0.760282
lowerneck 7.30914 -2.48914 -2.84618
upperneck -14.1212 -3.42204 4.662
head -5.31499 -1.99827 2.16415
rclavicle -6.36111e-015 -3.57812e-015
rhumerus 92.6205 -7.1935 -74.3428
rradius 83.0857
rwrist 18.2258
rhand -10.451 -16.6619
rfingers 7.12502
rthumb 15.5494 -406.057
lclavicle -6.36111e-015 -3.57812e-015
lhumerus 94.4391 1.75358 76.004
lradius 79.4299
lwrist -25.5054
lhand 6.66943 -1.53547
lfingers 7.12502
lthumb 31.961 25.6783
rfemur -23.0354 3.44655 25.8766
rtibia 28.828
rfoot -32.0203 -8.03433
rtoes 11.1411
lfemur -22.0298 1.95974 -12.0622
ltibia 27.6897
lfoot -30.2378 -2.33766
ltoes -3.59445
3095
root 13.3529 27.1083 47.6851 -713.355 -174.842 6.44968
lowerback 25.0157 0.531991 4.66928
upperback 4.37751 1.19842 3.30055
thorax -9.01178 0.0322696 0.666855
lowerneck 7.47164 -2.44583 -2.95399
upperneck -14.4238 -3.3596 4.86507
head -5.43319 -1.98507 2.25127
rclavicle 1.2921e-014 9.14409e-015
rhumerus 92.9531 -7.57925 -74.2679
rradius 84.0871
rwrist 18.0099
rhand -11.1984 -16.4244
rfingers 7.12502
rthumb 14.8293 -405.874
lclavicle 1.2921e-014 9.14409e-015
lhumerus 94.6962 1.93614 76.1006
lradius 80.7244
lwrist -25.8187
lhand 6.40021 -1.58372
lfingers 7.12502
lthumb 31.7046 25.681
rfemur -23.3523 3.28832 25.9233
rtibia 28.9802
rfoot -32.1033 -8.65487
rtoes 10.8317
lfemur -22.4957 1.78892 -12.0209
ltibia 27.6854
lfoot -30.0942 -2.73487
ltoes -3.89428
3096
root 13.3357 27.1192 47.5873 -713.413 -174.361 5.96681
lowerback 25.5054 0.327886 4.62368
upperback 4.43394 0.921325 3.17368
thorax -9.20595 -0.107952 0.644864
lowerneck 7.7515 -2.43121 -3.06042
upperneck -14.7853 -3.33825 5.04995
head -5.58899 -1.99179 2.33903
rclavicle 3.97569e-015 3.10104e-014
rhumerus 93.1705 -7.97573 -74.1491
rradius 85.0399
rwrist 17.9679
rhand -11.6505 -16.2271
rfingers 7.12502
rthumb 14.3937 -405.708
lclavicle 3.97569e-015 3.10104e-014
lhumerus 94.8632 2.15516 76.1722
lradius 81.9329
lwrist -26.2838
lhand 5.7314 -1.90026
lfingers 7.12502
lthumb 31.0673 25.4884
rfemur -22.938 2.81612 25.4068
rtibia 29.1468
rfoot -32.4282 -8.87245
rtoes 10.4378
lfemur -22.0683 1.04892 -12.5413
ltibia 27.673
lfoot -30.3434 -2.502
ltoes -3.81442
3097
root 13.344 27.1331 47.4853 -713.343 -175.252 5.37716
lowerback 25.8209 0.82167 3.58048
upperback 4.60369 1.25507 2.99366
thorax -9.19788 0.0697725 0.932904
lowerneck 7.9437 -2.46066 -2.94739
upperneck -15.1966 -3.36925 5.11478
head -5.75008 -2.03052 2.35656
rclavicle -5.1684e-015 -1.39149e-014
rhumerus 93.5151 -8.43601 -74.1483
rradius 86.0013
rwrist 17.9009
rhand -11.9359 -16.326
rfingers 7.12502
rthumb 14.1187 -405.826
lclavicle -5.1684e-015 -1.39149e-014
lhumerus 95.191 2.37547 76.0982
lradius 83.0338
lwrist -26.8353
lhand 4.91875 -2.30671
lfingers 7.12502
lthumb 30.2925 25.2272
rfemur -22.6801 3.21848 24.7785
rtibia 29.3464
rfoot -32.6318 -8.62621
rtoes 10.2166
lfemur -21.344 1.2539 -13.1711
ltibia 27.5207
lfoot -30.7338 -1.66858
ltoes -4.23785
3098
root 13.3367 27.1495 47.3891 -713.296 -175.355 4.8306
lowerback 25.941 0.933654 3.09487
upperback 4.8219 1.21708 2.80829
thorax -9.02385 0.0543226 1.01622
lowerneck 8.19366 -2.46101 -2.72098
upperneck -15.7153 -3.36101 5.09355
head -5.9612 -2.05403 2.32986
rclavicle 2.78299e-014 4.69132e-014
rhumerus 93.9042 -8.94271 -74.1546
rradius 86.955
rwrist 17.6905
rhand -12.473 -16.3048
rfingers 7.12502
rthumb 13.6011 -405.841
lclavicle 2.78299e-014 4.69132e-014
lhumerus 95.601 2.60626 75.9521
lradius 84.1245
lwrist -27.1701
lhand 4.22444 -2.28535
lfingers 7.12502
lthumb 29.63 25.3683
rfemur -22.3732 3.0044 24.1934
rtibia 29.4177
rfoot -32.7646 -8.32717
rtoes 10.5204
lfemur -20.8828 0.941817 -13.7671
ltibia 27.4354
lfoot -30.8867 -1.28147
ltoes -4.11374
